<?xml version="1.0" encoding="UTF-8"?>
<svg id="Layer_1" data-name="Layer 1" xmlns="http://www.w3.org/2000/svg" viewBox="0 0 166.6 78.67">
  <defs>
    <style>
      .cls-1 {
        fill: #c4b374;
      }
    </style>
  </defs>
  <g>
    <path class="cls-1" d="M50.13,47.34c.43-.34.86-.69,1.3-1.02,6.64-5.03,13.91-8.95,21.62-12.08,3.51-1.42,7.12-2.44,10.87-3,.94-.14,1.88-.35,2.82-.4,4.69-.29,9.37-.66,14.07-.13,6.07.68,12.13,1.38,18.19,2.08,4.01.46,8.03.76,12.08.68,7.7-.16,14.8-2.28,21.29-6.44,3.03-1.94,5.69-4.35,8.32-6.79.77-.72,1.52-1.47,2.33-2.16-.08.39-.36.67-.59.96-2.28,2.87-4.94,5.33-7.93,7.44-5.68,4-11.93,6.66-18.78,7.9-3.99.72-8.01.93-12.05.75-4.81-.22-9.56-.85-14.31-1.61-6.08-.97-12.2-1.68-18.36-1.89-1.33-.05-2.65.06-3.96.24-2.1.3-4.21.43-6.3.85-5.17,1.05-9.98,3.07-14.67,5.4-4.14,2.06-8.12,4.4-11.85,7.14-.11.08-.21.16-.33.22-1.21.65-2.42,1.3-3.63,1.95-.03-.03-.07-.06-.1-.09Z"/>
    <path class="cls-1" d="M165.44,12.98c-.67,0-1.22-.54-1.2-1.2.01-.63.54-1.14,1.17-1.15.69,0,1.2.51,1.19,1.2-.01.65-.51,1.14-1.16,1.15Z"/>
    <g>
      <path class="cls-1" d="M138.23,10.97c.38.14.82.22,1.32.23.49.02.98-.01,1.47-.09.48-.07.92-.19,1.33-.36.4-.16.69-.36.87-.58.25-.31.35-.65.31-1.03.17.02.33.03.5.04.16,0,.3-.03.42-.09.12-.06.2-.16.25-.28.05-.13.06-.3.03-.52-.05-.3-.22-.52-.49-.67-.27-.15-.59-.26-.94-.32-.36-.06-.71-.09-1.07-.09-.36,0-.64.01-.84.03-.35.02-.74.06-1.17.13-.43.07-.85.17-1.25.32-.4.15-.76.34-1.07.59-.31.25-.52.57-.61.96-.13.46-.1.83.1,1.11.2.28.49.49.87.63ZM138.59,9.57c.12-.22.33-.38.62-.51.29-.12.62-.21.97-.24.35-.04.7-.05,1.04-.04.34.01.62.03.85.04.02.02.04.02.06.02.02,0,.05,0,.1.02.2.14.27.32.22.55-.15.16-.31.27-.5.34-.19.07-.38.14-.58.2-.1.01-.29.03-.58.06-.28.03-.58.04-.89.04-.31,0-.59-.04-.86-.1s-.42-.17-.48-.32c.02-.02.03-.04.02-.06Z"/>
      <path class="cls-1" d="M161.22,12.52c-.12-.12-.27-.21-.45-.27-.18-.06-.36-.08-.55-.06-.52.1-1.03.23-1.52.38-.49.16-.99.33-1.48.53-.94.39-1.86.8-2.77,1.23-.9.43-1.83.78-2.78,1.07-.75.25-1.48.48-2.2.69-.71.21-1.43.37-2.16.47l.49-.27c.41-.21.77-.38,1.09-.52.32-.14.7-.27,1.14-.4.16-.04.4-.11.71-.2.32-.1.61-.22.86-.37.26-.15.44-.34.55-.56.11-.23.04-.49-.2-.79-.22-.28-.52-.42-.92-.42-.4,0-.75.03-1.05.09-.76.13-1.52.25-2.26.37s-1.5.24-2.27.34c-.14.02-.27.06-.37.13-.01,0-.03,0-.04,0-.7.18-1.37.41-2.03.69-.65.29-1.3.57-1.95.87-.51.24-1,.45-1.5.62-.12.05-.26.09-.43.12-.17.03-.34.07-.52.13.02-.2.02-.41.02-.61,0-.2-.04-.38-.11-.55-.07-.16-.18-.29-.34-.39-.15-.09-.34-.13-.59-.13-.09-.01-.19-.01-.29,0-.52.1-1.03.23-1.52.38-.49.16-.99.33-1.48.53-.94.39-1.86.8-2.76,1.22-.9.43-1.83.78-2.78,1.07-.75.25-1.48.48-2.2.69-.71.21-1.43.37-2.16.47l.49-.27c.41-.21.77-.38,1.09-.52.32-.14.7-.27,1.14-.4.16-.04.4-.11.71-.2.32-.1.61-.22.86-.37.26-.15.44-.34.55-.56.11-.23.04-.49-.2-.79-.22-.28-.52-.42-.92-.42-.4,0-.75.03-1.05.09-.76.13-1.52.25-2.26.37s-1.5.24-2.27.34c-.02,0-.04.01-.06.01-.07,0-.13.02-.2.05-.25.09-.48.17-.69.26-.39.16-.79.36-1.21.59-.42.23-.83.46-1.26.68-.42.23-.86.44-1.3.63-.44.19-.88.34-1.32.45.13-.3.17-.57.12-.82-.05-.25-.29-.46-.72-.63-.42-.11-.83-.13-1.24-.04-.07-.05-.14-.1-.23-.14-.09-.04-.18-.08-.29-.1-.48-.09-.97-.13-1.46-.13s-.99.06-1.49.18c-.27.07-.61.2-1.01.39-.16,0-.34.02-.53.08-.4.13-.72.23-.98.32-.57.2-1.13.45-1.68.73-.55.28-1.1.57-1.64.85-.33.18-.65.35-.97.52-.32.17-.65.31-.98.43.06-.21.15-.43.26-.67s.25-.47.4-.7c.15-.23.29-.44.42-.62.13-.19.23-.33.3-.44.33-.52.67-1.03,1.03-1.52.35-.49.72-.98,1.09-1.47.7-.89,1.43-1.74,2.2-2.56.77-.82,1.58-1.6,2.44-2.34.15-.14.23-.3.24-.48,0-.18-.03-.34-.12-.49-.09-.14-.21-.25-.37-.32-.16-.07-.34-.07-.54.01-.34.12-.66.36-.98.73-.32.37-.6.68-.86.93-.86.86-1.69,1.76-2.47,2.68-.79.93-1.54,1.88-2.27,2.87-.21.29-.51.68-.88,1.17-.28.37-.53.77-.77,1.17-.09,0-.17,0-.27.02-.7.16-1.39.36-2.07.61-.68.25-1.36.49-2.05.73-.95.33-1.9.64-2.86.95-.96.31-1.93.56-2.91.75-.06,0-.21.02-.44.05-.23.03-.49.04-.76.05-.27.01-.54,0-.79-.02-.25-.02-.42-.07-.51-.14.25.01.53.02.86.01.33,0,.64-.04.94-.11.3-.06.57-.16.8-.29.23-.13.39-.32.49-.57.1-.34.09-.6-.04-.8-.14-.2-.35-.34-.65-.43-.3-.09-.64-.12-1.03-.1-.39.02-.77.08-1.15.16-.38.08-.72.19-1.02.31-.27.11-.46.23-.59.37-.11,0-.22,0-.33.02-.42.09-.83.21-1.23.36-.4.16-.8.33-1.19.51-.66.32-1.31.67-1.95,1.06-.64.39-1.31.7-2,.92.18-.55.44-1.08.77-1.61.33-.53.68-1.05,1.07-1.54.38-.5.78-.98,1.19-1.45.41-.47.8-.93,1.18-1.37.77-.93,1.57-1.84,2.39-2.73.82-.89,1.65-1.76,2.5-2.62.13-.16.19-.32.19-.51,0-.18-.05-.34-.15-.48-.1-.14-.23-.24-.39-.29-.16-.05-.34-.04-.53.04-.35.14-.69.41-1,.82-.31.41-.59.75-.82,1.01-.79.83-1.55,1.68-2.31,2.53-.75.85-1.49,1.72-2.21,2.61-.07.09-.19.24-.36.45-.17.21-.37.47-.59.76-.22.3-.46.62-.72.97-.26.35-.51.72-.75,1.11-.06.03-.12.05-.19.07-.07.02-.14.05-.22.1-.04,0-.07,0-.1-.02-.81-.11-1.63-.08-2.45.09-.58.12-1.11.31-1.62.56-.05,0-.09,0-.14,0-.3.01-.52.03-.69.05l-3.21.45c-.51.06-1.01.12-1.52.18-.51.07-1.01.11-1.52.13-.16.02-.35.02-.55,0-.21-.02-.4-.02-.58,0-.18.02-.34.07-.47.16-.13.09-.22.25-.25.49-.07.32,0,.56.2.71.2.14.45.25.74.32-.15.16-.35.3-.63.43-.12.05-.29.13-.51.22-.22.1-.46.18-.69.24-.24.07-.46.12-.67.17-.21.04-.36.04-.45-.01l-.03-.03s.08-.12.17-.35c.1-.23.2-.5.31-.79.11-.29.21-.58.32-.85.1-.27.19-.47.26-.57.58-1.03,1.23-2,1.96-2.91.73-.91,1.49-1.8,2.29-2.68.09-.11.31-.33.66-.65.35-.32.68-.66.97-1.03.3-.36.49-.72.58-1.06.09-.34-.06-.58-.47-.72-.19-.06-.37-.05-.55.03-.17.08-.34.19-.48.34-.15.15-.29.31-.42.47-.13.17-.26.31-.37.42l-2.07,2.32c-.22.25-.54.61-.95,1.08-.42.47-.86,1-1.34,1.6-.47.6-.93,1.23-1.37,1.89-.27.42-.5.82-.69,1.22-.08,0-.15.02-.23.05-.25.09-.48.18-.69.26-.39.16-.79.36-1.21.59-.41.23-.83.46-1.26.68-.42.23-.86.44-1.3.63-.44.19-.88.34-1.32.45.13-.3.17-.57.12-.82-.05-.25-.29-.46-.72-.63-.42-.11-.83-.13-1.23-.05-.07-.05-.15-.1-.23-.14-.09-.04-.18-.07-.29-.1-.48-.09-.97-.13-1.46-.13-.49,0-.99.06-1.48.18-.3.07-.67.22-1.12.44-.45.22-.85.49-1.21.8-.36.31-.62.66-.77,1.06-.05.14-.08.29-.08.43-.53.1-1.03.14-1.27.16-.62.07-.97-.23-1.05-.9-.1-.84-.05-2.97.17-6.37.21-3.4.44-5.82.69-7.26.43-2.5,1.22-4.56,2.36-6.19,1.14-1.62,2.45-2.52,3.91-2.69,1.11-.13,1.71.15,1.79.83.03.22.01.51-.04.85l-.06.39.76.03.96-5.4c-1.48.17-2.91.76-4.3,1.75-1.05.75-2.01,1.68-2.88,2.78-.87,1.1-2.25,3.13-4.15,6.1l-8.01,12.56-1.13,1.76c-.09.15-.27.44-.55.89-.47-2.08-1.26-4.54-2.38-7.4-.65-1.65-1.09-2.82-1.32-3.5,1.2-2.53,2.04-4.59,2.49-6.19.46-1.6.62-2.99.47-4.17-.22-1.82-.87-2.67-1.96-2.54-1.1.13-2.04,1.41-2.82,3.85-.78,2.44-1.02,4.85-.73,7.24.12.96.39,2.14.82,3.54-2.36,4.28-4.98,7.63-7.85,10.04-2.87,2.41-5.92,3.8-9.13,4.18-3.66.43-6.75-.17-9.27-1.8-2.52-1.63-3.96-3.96-4.33-7-.29-2.43.23-4.47,1.58-6.11,1.34-1.65,3.28-2.62,5.8-2.91,1.97-.23,4.21.12,6.72,1.05,2.51.93,5.12,2.38,7.83,4.36l.58.41,4.76-3.35-.47-.55c-1.21.87-2.11,1.33-2.69,1.4-.48.06-1.26-.26-2.34-.95-2.86-1.81-5.15-2.99-6.88-3.55-1.73-.56-3.6-.72-5.61-.49-3.49.41-6.2,1.71-8.13,3.89C.49,17.47-.28,20.11.09,23.22c.29,2.39,1.16,4.39,2.62,6,1.28,1.43,2.92,2.49,4.92,3.18,2.01.69,4.07.91,6.19.66,3.25-.38,6.44-1.9,9.59-4.54,3.15-2.65,6.06-6.27,8.74-10.86.09.26.14.4.15.42l.95,2.6c1.07,2.96,1.69,5.17,1.86,6.63.11.89-.02,1.8-.38,2.76l.55.3.38-.61,3.81-5.95,3.73-5.89c1.05-1.65,1.83-2.88,2.33-3.69l.62-.98c-.38,3.14-.66,6.35-.84,9.64-.18,3.28-.2,5.52-.05,6.71.81-.48,1.96-.78,3.04-1.33.65-.34,1.46-.59,2.2-.81.2.2.44.31.73.32.37.02.73-.02,1.06-.12.51-.16,1.02-.37,1.51-.62.49-.26.99-.49,1.5-.71.39-.16.78-.3,1.18-.4-.07.29-.04.56.07.79.12.24.36.42.72.54.32.07.64.07.99.03.34-.05.68-.13,1.02-.25.33-.12.66-.26.97-.41.31-.16.6-.3.87-.43.58-.27,1.17-.57,1.77-.91.35-.2.71-.37,1.08-.51,0,.16-.01.32,0,.47.05.52.32.94.81,1.27.33.23.79.31,1.37.24.58-.06,1.15-.22,1.71-.46.57-.24,1.05-.57,1.46-.96.41-.4.6-.82.59-1.26.28-.03.55-.07.79-.1.24-.04.43-.06.58-.08.59-.07,1.17-.14,1.74-.21.51-.07,1.03-.14,1.56-.21-.1.19-.16.38-.18.58-.03.28.1.53.4.76.18.14.36.22.55.24.19.02.39.02.61,0,.7-.12,1.41-.34,2.11-.67s1.37-.67,2-1.02c-.11.48-.07.87.1,1.17.18.3.59.44,1.25.41.61-.05,1.2-.23,1.78-.53.58-.31,1.13-.6,1.65-.88.5-.28,1-.54,1.49-.8.49-.26,1.01-.47,1.54-.63.09-.03.2-.06.3-.09.06.17.14.33.25.49.16.22.36.41.6.57.29.19.6.32.94.39.34.07.68.11,1.04.11.36,0,.71-.03,1.07-.09.35-.06.69-.13,1.01-.2,1.22-.26,2.41-.58,3.58-.96,1.17-.38,2.34-.78,3.52-1.19.45-.15.9-.31,1.35-.47.08-.03.16-.05.24-.08-.01.05-.02.1-.03.14-.1.55.01,1,.34,1.37.21.24.47.37.77.38.3.02.59,0,.87-.08.83-.25,1.62-.59,2.36-1.02.66-.38,1.33-.73,2.02-1.07.04.18.11.36.24.54.22.32.52.49.89.51.37.02.72-.02,1.06-.12.51-.16,1.02-.37,1.51-.62.49-.26.99-.49,1.5-.71.39-.17.78-.3,1.18-.41-.07.29-.04.56.07.79.12.24.36.42.72.54.32.07.64.07.99.03s.68-.13,1.02-.25c.33-.12.66-.25.97-.41.31-.16.6-.3.87-.43.58-.27,1.17-.57,1.77-.91.59-.33,1.19-.58,1.82-.75.04,0,.07,0,.11,0,.31-.04.6-.09.86-.14l1.36-.24c-.51.24-1.01.46-1.51.67-.5.21-.96.48-1.4.81-.36.28-.53.52-.53.71,0,.19.09.35.26.49.17.13.37.23.62.29.24.06.45.09.61.07,1.85-.16,3.61-.48,5.29-.95,1.68-.47,3.36-1.06,5.04-1.78.55-.22,1.1-.45,1.64-.69.55-.23,1.11-.44,1.68-.63.06-.02.12-.04.18-.06,0,.05-.02.1-.02.15-.01.22,0,.44.06.65.05.2.15.39.28.54.13.16.32.27.58.34.4.08.82.01,1.25-.19.44-.2.82-.38,1.15-.54.56-.27,1.13-.52,1.71-.77.58-.25,1.16-.48,1.75-.71.27-.11.56-.21.86-.31.3-.09.59-.18.89-.25.02,0,.04,0,.06-.01.07,0,.15,0,.23,0,.31-.04.6-.09.86-.14l1.36-.24c-.51.24-1.01.46-1.51.67-.5.21-.96.48-1.4.81-.36.28-.53.52-.53.71,0,.19.09.35.25.49.17.13.38.23.62.29.24.06.45.09.61.07,1.85-.16,3.61-.48,5.29-.95,1.68-.47,3.36-1.06,5.04-1.78.55-.22,1.1-.45,1.64-.68.55-.23,1.11-.44,1.68-.63.22-.09.5-.16.86-.23s.61-.21.75-.4c.14-.2.2-.38.18-.56-.02-.17-.09-.32-.2-.43ZM32.54,10.16c-.19-1.57-.17-2.94.08-4.1.24-1.16.63-1.77,1.17-1.84.71-.08,1.13.38,1.25,1.4.12.96.02,2.19-.3,3.67-.32,1.48-.79,2.96-1.43,4.43-.38-1.36-.64-2.55-.76-3.57ZM52.99,25.75c-.2.08-.39.16-.59.22.3-.22.69-.38,1.17-.49-.19.1-.39.2-.58.28ZM110.99,19.3c-.2.08-.39.16-.59.22.3-.22.69-.38,1.17-.49-.19.1-.39.2-.58.28Z"/>
    </g>
  </g>
  <g>
    <path class="cls-1" d="M7.59,57.19c.1.23.19.46.29.7.09-.24.19-.48.29-.71.1-.23.21-.46.32-.67l4.29-8.02c.05-.1.11-.18.17-.24.06-.06.12-.1.19-.13.07-.03.15-.04.24-.05.09,0,.19-.01.31-.01h2.03v14.48h-2.37v-9.35c0-.17,0-.36.02-.57.01-.21.03-.42.05-.63l-4.38,8.21c-.1.19-.23.33-.39.44-.16.1-.35.16-.56.16h-.37c-.21,0-.4-.05-.56-.16-.16-.1-.29-.25-.39-.44l-4.44-8.24c.03.22.05.44.06.65s.02.41.02.59v9.35H0v-14.48h2.03c.12,0,.22,0,.31.01.09,0,.17.02.24.05.07.03.14.07.2.13s.12.14.17.24l4.33,8.04c.11.21.22.44.32.67Z"/>
    <path class="cls-1" d="M39.37,62.54h-2.08c-.23,0-.43-.06-.58-.18-.15-.12-.26-.26-.33-.44l-1.08-2.95h-6l-1.08,2.95c-.05.15-.16.29-.32.42-.16.13-.35.19-.58.19h-2.09l5.69-14.48h2.75l5.69,14.48ZM30,57.07h4.62l-1.76-4.82c-.08-.21-.17-.47-.27-.76-.1-.29-.19-.61-.29-.95-.09.34-.19.66-.28.95-.09.29-.18.55-.27.77l-1.76,4.8Z"/>
    <path class="cls-1" d="M59.33,48.05h2.17c.23,0,.42.06.57.17.15.11.26.26.33.44l3.41,8.83c.11.29.22.6.33.95.1.34.2.71.3,1.09.15-.77.34-1.45.57-2.03l3.4-8.83c.06-.15.17-.29.32-.42.15-.13.34-.19.57-.19h2.17l-5.85,14.48h-2.43l-5.85-14.48Z"/>
    <path class="cls-1" d="M86.02,62.54h-2.7v-14.48h2.7v14.48Z"/>
    <path class="cls-1" d="M105.05,50.69c-.07.15-.16.25-.26.31-.1.06-.21.09-.35.09s-.28-.05-.45-.16c-.17-.1-.36-.22-.59-.35-.23-.13-.49-.24-.8-.35-.3-.1-.66-.16-1.08-.16-.37,0-.7.05-.98.14-.28.09-.51.22-.7.38s-.33.35-.43.58c-.09.22-.14.47-.14.74,0,.34.1.62.29.85.19.23.44.42.76.58.31.16.67.3,1.07.43.4.13.81.26,1.23.41.42.14.83.31,1.23.5s.76.43,1.07.72c.31.29.57.65.76,1.07.19.42.29.93.29,1.53,0,.65-.11,1.27-.34,1.84-.22.57-.55,1.07-.98,1.49-.43.42-.96.76-1.58,1-.62.24-1.33.37-2.13.37-.46,0-.91-.05-1.36-.14-.45-.09-.88-.22-1.29-.39-.41-.17-.79-.37-1.15-.6-.36-.23-.68-.49-.96-.78l.78-1.29c.07-.09.16-.17.27-.24.1-.06.22-.1.35-.1.17,0,.35.07.54.21.19.14.42.29.69.46.26.17.57.32.93.46.36.14.79.21,1.29.21.77,0,1.36-.18,1.78-.55.42-.36.63-.89.63-1.57,0-.38-.1-.69-.29-.93s-.44-.44-.76-.61c-.31-.16-.67-.3-1.07-.42-.4-.11-.81-.24-1.22-.37-.41-.13-.82-.29-1.22-.48-.4-.19-.76-.43-1.07-.73-.31-.3-.57-.68-.76-1.13-.19-.45-.29-1.01-.29-1.67,0-.53.11-1.04.32-1.54.21-.5.52-.94.92-1.33.4-.39.9-.7,1.49-.93.59-.23,1.26-.35,2.01-.35.85,0,1.64.13,2.36.4.72.27,1.34.64,1.84,1.12l-.66,1.27Z"/>
    <path class="cls-1" d="M119.08,62.54h-2.7v-14.48h2.7v14.48Z"/>
    <path class="cls-1" d="M144.24,55.29c0,1.06-.18,2.04-.53,2.95-.35.9-.85,1.69-1.49,2.35s-1.41,1.18-2.31,1.55c-.9.37-1.9.56-2.99.56s-2.09-.19-3-.56c-.9-.37-1.68-.89-2.32-1.55-.64-.66-1.14-1.44-1.5-2.35-.35-.9-.53-1.89-.53-2.95s.18-2.04.53-2.95c.35-.9.85-1.69,1.5-2.35.64-.66,1.42-1.18,2.32-1.55.9-.37,1.9-.56,3-.56s2.09.19,2.99.56c.9.37,1.67.89,2.31,1.55.64.66,1.14,1.44,1.49,2.34.35.9.53,1.89.53,2.95ZM141.48,55.29c0-.79-.11-1.51-.32-2.14-.21-.63-.51-1.17-.91-1.61-.39-.44-.87-.78-1.44-1.01-.56-.23-1.2-.35-1.91-.35s-1.35.12-1.91.35c-.57.23-1.05.57-1.45,1.01-.4.44-.7.98-.92,1.61-.21.63-.32,1.34-.32,2.14s.11,1.51.32,2.14c.21.63.52,1.17.92,1.6.4.44.88.77,1.45,1.01.57.23,1.21.35,1.91.35s1.34-.12,1.91-.35c.56-.23,1.04-.57,1.44-1.01.39-.44.7-.97.91-1.6.21-.63.32-1.34.32-2.14Z"/>
    <path class="cls-1" d="M156.09,48.07c.08.01.15.03.22.06.06.03.13.07.19.13.06.06.13.13.2.23l7.6,9.68c-.03-.23-.05-.46-.06-.69-.01-.22-.01-.43-.01-.63v-8.8h2.37v14.48h-1.39c-.21,0-.39-.03-.53-.1-.14-.07-.28-.19-.41-.36l-7.57-9.64c.02.21.04.43.05.64,0,.21.01.4.01.58v8.89h-2.37v-14.48h1.41c.12,0,.22,0,.3.01Z"/>
    <path class="cls-1" d="M8.77,73.62c0,.72-.12,1.39-.36,2-.24.61-.58,1.13-1.02,1.56s-.96.78-1.58,1.02c-.61.24-1.3.36-2.04.36H0v-9.88h3.77c.75,0,1.43.12,2.04.37.61.24,1.14.58,1.58,1.02.44.44.78.96,1.02,1.56.24.61.36,1.27.36,2ZM6.89,73.62c0-.54-.07-1.03-.22-1.46-.15-.43-.35-.79-.62-1.09-.27-.3-.6-.53-.98-.69-.39-.16-.82-.24-1.3-.24h-1.92v6.96h1.92c.48,0,.92-.08,1.3-.24.38-.16.71-.39.98-.69.27-.3.48-.66.62-1.09.15-.43.22-.92.22-1.46Z"/>
    <path class="cls-1" d="M21.91,68.68v1.46h-4.38v2.74h3.45v1.41h-3.45v2.79h4.38v1.47h-6.23v-9.88h6.23Z"/>
    <path class="cls-1" d="M28,68.68h1.48c.16,0,.29.04.39.12.1.08.18.18.23.3l2.32,6.03c.08.2.15.41.22.65.07.23.14.48.2.74.1-.52.23-.99.39-1.39l2.32-6.03c.04-.1.11-.2.22-.29.1-.09.23-.13.39-.13h1.48l-3.99,9.88h-1.66l-3.99-9.88Z"/>
    <path class="cls-1" d="M50.37,68.68v1.46h-4.38v2.74h3.45v1.41h-3.45v2.79h4.38v1.47h-6.23v-9.88h6.23Z"/>
    <path class="cls-1" d="M59.27,77.04h3.96v1.52h-5.79v-9.88h1.84v8.36Z"/>
    <path class="cls-1" d="M78.89,73.62c0,.72-.12,1.4-.36,2.01-.24.62-.58,1.15-1.02,1.6-.44.45-.96.8-1.58,1.06-.61.25-1.3.38-2.04.38s-1.43-.13-2.05-.38c-.62-.25-1.15-.6-1.59-1.06-.44-.45-.78-.98-1.02-1.6-.24-.62-.36-1.29-.36-2.01s.12-1.39.36-2.01c.24-.62.58-1.15,1.02-1.6.44-.45.97-.8,1.59-1.06.62-.25,1.3-.38,2.05-.38s1.43.13,2.04.38c.61.26,1.14.61,1.58,1.06.44.45.78.98,1.02,1.6.24.62.36,1.29.36,2.01ZM77,73.62c0-.54-.07-1.03-.22-1.46s-.35-.8-.62-1.1c-.27-.3-.6-.53-.98-.69-.39-.16-.82-.24-1.3-.24s-.92.08-1.31.24c-.39.16-.72.39-.99.69-.27.3-.48.67-.63,1.1-.15.43-.22.92-.22,1.46s.07,1.03.22,1.46c.15.43.35.79.63,1.09.27.3.6.53.99.69.39.16.82.24,1.31.24s.92-.08,1.3-.24c.38-.16.71-.39.98-.69.27-.3.47-.66.62-1.09.14-.43.22-.92.22-1.46Z"/>
    <path class="cls-1" d="M87.7,75.08v3.48h-1.84v-9.88h3.22c.66,0,1.23.08,1.72.23.48.15.88.37,1.2.65.31.28.55.61.7,1,.15.39.23.81.23,1.27s-.08.92-.24,1.32c-.16.4-.4.74-.72,1.03-.32.29-.72.51-1.2.67-.48.16-1.04.24-1.68.24h-1.38ZM87.7,73.64h1.38c.34,0,.63-.04.88-.13.25-.08.46-.21.62-.36.16-.16.29-.35.37-.57.08-.23.12-.48.12-.76s-.04-.5-.12-.72c-.08-.21-.21-.4-.37-.55-.16-.15-.37-.27-.62-.35-.25-.08-.54-.12-.88-.12h-1.38v3.55Z"/>
    <path class="cls-1" d="M104.99,74.91c.07.16.13.32.19.47.06-.16.13-.33.2-.49.07-.16.14-.31.22-.46l2.92-5.47c.04-.07.07-.12.11-.16.04-.04.08-.07.13-.09.05-.02.1-.03.16-.03.06,0,.13,0,.21,0h1.39v9.88h-1.62v-6.38c0-.12,0-.25.01-.39,0-.14.02-.28.03-.43l-2.99,5.6c-.07.13-.16.23-.27.3-.11.07-.24.11-.38.11h-.25c-.15,0-.27-.04-.38-.11-.11-.07-.2-.17-.27-.3l-3.03-5.62c.02.15.03.3.04.44s.01.28.01.4v6.38h-1.62v-9.88h1.39c.08,0,.15,0,.21,0,.06,0,.11.02.16.03.05.02.09.05.13.09.04.04.08.1.12.16l2.95,5.49c.08.15.15.3.22.45Z"/>
    <path class="cls-1" d="M124.22,68.68v1.46h-4.38v2.74h3.45v1.41h-3.45v2.79h4.38v1.47h-6.23v-9.88h6.23Z"/>
    <path class="cls-1" d="M132.45,68.69c.05,0,.1.02.15.04.04.02.09.05.13.09.04.04.09.09.14.15l5.19,6.61c-.02-.16-.03-.32-.04-.47,0-.15-.01-.29-.01-.43v-6.01h1.62v9.88h-.95c-.15,0-.27-.02-.36-.07-.1-.05-.19-.13-.28-.25l-5.17-6.58c.01.15.02.29.03.43,0,.14.01.27.01.39v6.07h-1.62v-9.88h.96c.08,0,.15,0,.2.01Z"/>
    <path class="cls-1" d="M154.04,68.68v1.51h-2.97v8.37h-1.84v-8.37h-2.99v-1.51h7.8Z"/>
    <path class="cls-1" d="M165.97,70.47c-.05.1-.11.17-.17.21-.07.04-.14.06-.24.06s-.19-.04-.31-.11c-.11-.07-.25-.15-.4-.24-.15-.09-.34-.17-.54-.24-.21-.07-.45-.11-.73-.11-.26,0-.48.03-.67.09-.19.06-.35.15-.48.26s-.23.24-.29.39c-.06.15-.1.32-.1.5,0,.23.06.43.19.58.13.15.3.29.52.4.21.11.46.21.73.29.27.09.55.18.84.28.28.1.56.21.84.34s.52.29.73.49c.21.2.39.44.52.73.13.29.19.64.19,1.05,0,.45-.08.86-.23,1.25s-.38.73-.67,1.02c-.29.29-.65.52-1.08.68-.42.17-.91.25-1.46.25-.31,0-.62-.03-.93-.09-.31-.06-.6-.15-.88-.26-.28-.11-.54-.25-.79-.41-.24-.16-.46-.34-.65-.53l.53-.88c.05-.06.11-.12.18-.16.07-.04.15-.06.24-.06.11,0,.24.05.37.14.13.09.29.2.47.31.18.11.39.22.64.31.24.09.54.14.88.14.52,0,.93-.12,1.22-.37.29-.25.43-.6.43-1.07,0-.26-.06-.47-.19-.64s-.3-.3-.52-.41c-.21-.11-.46-.21-.73-.28-.27-.08-.55-.16-.83-.25-.28-.09-.56-.2-.83-.33-.27-.13-.52-.29-.73-.5-.21-.2-.39-.46-.52-.77-.13-.31-.19-.69-.19-1.14,0-.36.07-.71.22-1.05.14-.34.35-.64.63-.91.28-.26.61-.48,1.01-.64.4-.16.86-.24,1.37-.24.58,0,1.12.09,1.61.27.49.18.91.44,1.26.77l-.45.87Z"/>
  </g>
</svg>